<svg xmlns="http://www.w3.org/2000/svg" viewBox="0 0 269.64 301.1"><defs><style>.cls-1{fill:#dfdfdf;}</style></defs><g id="レイヤー_2" data-name="レイヤー 2"><g id="レイヤー_7" data-name="レイヤー 7"><path class="cls-1" d="M47.43,130.59c4.43-20.65,13.67-38.93,26.17-53-5.77-4-12-7.4-16.25-7.56-11.62-.43-31.87,6.85-45.11,28C-1.49,120-1.52,130.26,1.87,134.62c4.32,5.56,22.55-2.34,28-2.86C33.84,131.39,41.41,130.46,47.43,130.59Z"/><path class="cls-1" d="M44.43,226.24A18.76,18.76,0,0,0,71,252.77l7.93-7.93a107.07,107.07,0,0,1-22.1-31Z"/><path class="cls-1" d="M134.91,48.46A76.78,76.78,0,0,1,171.78,58a67.59,67.59,0,0,0,.38-7.17C172.16,22.75,155.45,0,134.84,0S97.53,22.75,97.53,50.82a69.11,69.11,0,0,0,.38,7.25A76.68,76.68,0,0,1,134.91,48.46Z"/><path class="cls-1" d="M213,214a107.15,107.15,0,0,1-22.13,30.91l7.83,7.84a18.76,18.76,0,0,0,26.52-26.53Z"/><path class="cls-1" d="M257.41,98.06c-13.25-21.15-33.5-28.43-45.12-28-4.26.15-10.4,3.55-16.14,7.48,12.54,14,21.81,32.36,26.25,53.05a162.92,162.92,0,0,1,17.38,1.17c5.44.52,23.68,8.42,28,2.86C271.16,130.26,271.14,120,257.41,98.06Z"/><path class="cls-1" d="M114.33,265.65,134.8,301.1l20.43-35.37a75.31,75.31,0,0,1-40.9-.08Z"/><ellipse class="cls-1" cx="134.87" cy="158.49" rx="80.42" ry="97.86"/></g></g></svg>