<svg xmlns="http://www.w3.org/2000/svg" viewBox="0 0 250.02 238.32"><defs><style>.cls-1{fill:#dfdfdf;}</style></defs><g id="レイヤー_2" data-name="レイヤー 2"><g id="レイヤー_7" data-name="レイヤー 7"><path class="cls-1" d="M42.58,136.15,1.66,96.27a5.5,5.5,0,0,1,3.05-9.38L62.44,78.5,64,89.38l-46.7,6.79,32.94,32.11Z"/><path class="cls-1" d="M51.15,238.32a5.5,5.5,0,0,1-5.42-6.43l9.9-57.71L66.47,176l-8,46.72L100,200.92l5.12,9.73-51.42,27A5.57,5.57,0,0,1,51.15,238.32Z"/><path class="cls-1" d="M198.87,238.32a5.51,5.51,0,0,1-2.56-.63L144.5,210.45l5.12-9.74,41.94,22-8-46.64,10.85-1.86,9.88,57.63a5.5,5.5,0,0,1-5.42,6.43Z"/><path class="cls-1" d="M207.16,136.42l-7.68-7.88L232.7,96.17l-45.06-6.55,1.58-10.88,56.09,8.15a5.5,5.5,0,0,1,3.05,9.38Z"/><path class="cls-1" d="M145.7,59.84,125,17.93,105,58.51l-9.86-4.87,25-50.57A5.49,5.49,0,0,1,125,0h0a5.5,5.5,0,0,1,4.93,3.07L155.56,55Z"/></g></g></svg>